<svg id="Layer_1" data-name="Layer 1" xmlns="http://www.w3.org/2000/svg" viewBox="0 0 606.91 100"><title>kongsberg-videregående-skole</title><path d="M.81,1.9l0,40.62C.88,61.7,16.1,85.32,40.37,99,64.65,85.32,79.87,61.7,79.89,42.52l0-40.62Z" fill="#fff"/><path d="M0,.91.05,42.36C.07,61.93,15.6,86,40.37,100,65.14,86,80.67,61.93,80.7,42.36l0-41.45ZM40.37,81.65c-7.51,0-13.59-1.44-13.59-2s6.08-2,13.59-2S54,79.19,54,79.7,47.88,81.65,40.37,81.65Zm0-10.43c-11.53,0-20.89-2.1-20.89-3s9.36-3,20.89-3,20.89,2.1,20.89,3S51.91,71.22,40.37,71.22Zm0-12.13c-14.16,0-25.64-2.59-25.64-3.67s11.48-3.67,25.64-3.67S66,54.34,66,55.42,54.54,59.09,40.37,59.09ZM67,43.45c-3.13.63-14.83,1.6-26.64,1.6s-23.61-1-26.63-1.6c-.2,0-.36-.16-.29-.35A76.82,76.82,0,0,1,40,8.36a.63.63,0,0,1,.74,0A76.75,76.75,0,0,1,67.3,43.1C67.37,43.29,67.21,43.41,67,43.45Z" fill="#231f20"/><path d="M128.62,74.48h4.63V95.55h-4.63Z" fill="#231f20"/><path d="M158.23,85c0,6.29-4.3,10.53-10.56,10.53h-8.88V74.48h8.88C154.08,74.48,158.23,78.76,158.23,85Zm-4.72,0c0-3.85-2.41-6.44-6-6.44h-4.07V91.46h4.07C151.16,91.46,153.51,88.84,153.51,85Z" fill="#231f20"/><path d="M166.91,78.58v4.75h8.34v3.59l-8.34,0v4.51h8.82v4.09H162.27V74.48h13.46v4.1Z" fill="#231f20"/><path d="M197.91,95.1l-.24.45h-4.85l-6.17-7h-1.72v7h-4.42V74.48h7.62c5,0,8.36,2.8,8.36,7a6.83,6.83,0,0,1-5,6.56ZM184.93,85h2.69c2.77,0,4.39-1.45,4.39-3.37s-1.62-3.28-4.39-3.28h-2.69Z" fill="#231f20"/><path d="M206,78.58v4.75h8.33v3.59L206,87v4.51h8.81v4.09H201.33V74.48h13.45v4.1Z" fill="#231f20"/><path d="M240.12,84v1a10.62,10.62,0,0,1-10.69,10.9c-6.29,0-11.37-4.43-11.37-10.84s5.11-11,11.46-11a12.57,12.57,0,0,1,8.28,2.95l-2.23,3.35-.2.06a8.84,8.84,0,0,0-5.85-2.14,6.77,6.77,0,0,0-.06,13.54,5.83,5.83,0,0,0,5.78-4.3H229.4V84Z" fill="#231f20"/><path d="M256.87,91.49H246.79L245,95.55h-4.7l9.3-20.22a3.52,3.52,0,0,1-1.53-2.89,3.75,3.75,0,0,1,7.49,0A3.53,3.53,0,0,1,254,75.36l9.33,20.19h-4.7Zm-1.66-3.76-3.4-7.68-3.37,7.68Zm-5.12-15.29a1.65,1.65,0,0,0,1.75,1.62,1.64,1.64,0,0,0,1.71-1.62,1.66,1.66,0,0,0-1.71-1.63A1.67,1.67,0,0,0,250.09,72.44Z" fill="#231f20"/><path d="M270.45,78.58v4.75h8.34v3.59l-8.34,0v4.51h8.82v4.09H265.81V74.48h13.46v4.1Z" fill="#231f20"/><path d="M302.29,74.48V95.55h-1.36l-12.24-12v12h-4.64V74.48h1.33l12.27,12.41V74.48Z" fill="#231f20"/><path d="M327.27,85c0,6.29-4.31,10.53-10.57,10.53h-8.88V74.48h8.88C323.11,74.48,327.27,78.76,327.27,85Zm-4.73,0c0-3.85-2.41-6.44-6-6.44h-4.06V91.46h4.06C320.19,91.46,322.54,88.84,322.54,85Z" fill="#231f20"/><path d="M336,78.58v4.75h8.33v3.59L336,87v4.51h8.81v4.09H331.31V74.48h13.45v4.1Z" fill="#231f20"/><path d="M358.19,94.5l-.75-4.36.09-.06A17.1,17.1,0,0,0,364.87,92c2.53,0,4.25-.84,4.25-2.28,0-1.09-.76-1.69-2-2.11l-5.44-1.51a5.63,5.63,0,0,1-4.1-5.59c0-4,3.34-6.36,8.21-6.36a15,15,0,0,1,6.57,1.39v4.18A12.52,12.52,0,0,0,366,78c-2.77,0-3.74,1-3.74,2.44,0,.69.24,1.68,1.87,2.22l5.24,1.57c2.71.78,4.36,2.68,4.36,5.36,0,4-3.61,6.32-8.64,6.32A20.23,20.23,0,0,1,358.19,94.5Z" fill="#231f20"/><path d="M396.31,95.1l-.25.45h-4.6l-5.63-8.21a19.53,19.53,0,0,1-3.1.66l-.48.06v7.49h-4.63V74.48h4.63v9.64l.15,0c4.4-1,7.37-3.74,7.37-8.22V74.48h4.73v1.6a10.91,10.91,0,0,1-4.67,9.33Z" fill="#231f20"/><path d="M397.55,85a10.84,10.84,0,0,1,11.2-10.9c6.41,0,11.2,4.64,11.2,10.9a10.84,10.84,0,0,1-11.2,10.9C402.34,95.92,397.55,91.28,397.55,85Zm17.67,0a6.49,6.49,0,0,0-6.47-6.74A6.75,6.75,0,1,0,415.22,85Z" fill="#231f20"/><path d="M437.11,91.34v4.21H424V74.48h4.63V91.34Z" fill="#231f20"/><path d="M445.06,78.58v4.75h8.33v3.59l-8.33,0v4.51h8.81v4.09H440.42V74.48h13.45v4.1Z" fill="#231f20"/><polygon points="125.7 74.48 125.7 74.84 117.1 95.56 113.31 95.56 104.8 74.84 104.8 74.48 109.56 74.48 115.27 89.89 120.89 74.48 125.7 74.48" fill="#231f20"/><path d="M156.1,54.26l-.62,1.16H143.56L129,34.17a49.24,49.24,0,0,1-8,1.71l-1.24.16V55.42h-12V.93h12V25.84l.39-.07c11.36-2.5,19.07-9.66,19.07-21.26V.93h12.22V5.06c0,10.66-4.52,18.84-12.07,24.13Z" fill="#231f20"/><path d="M159.85,28.18C159.85,12,172.54,0,188.81,0c16.58,0,29,12,29,28.18s-12.77,28.18-29,28.18C172.23,56.36,159.85,44.37,159.85,28.18Zm45.7,0c0-10.12-7.48-17.44-16.74-17.44-9.73,0-16.74,7.48-16.74,17.44s7.09,17.43,16.74,17.43C198.23,45.61,205.55,38.22,205.55,28.18Z" fill="#231f20"/><path d="M275.21.93V55.42h-3.5L240,24.29V55.42H228V.93h3.42L263.22,33V.93Z" fill="#231f20"/><path d="M342.49,25.45v2.73c0,16.19-12.29,28.18-27.63,28.18-16.27,0-29.42-11.44-29.42-28S298.67,0,315.1,0c7.62,0,16.11,2.65,21.4,7.63l-5.76,8.64-.54.16a22.81,22.81,0,0,0-15.1-5.53c-9.5,0-17.44,7.08-17.44,17.67a17,17,0,0,0,17.28,17.36A15.09,15.09,0,0,0,329.89,34.8H314.78V25.45Z" fill="#231f20"/><path d="M350.93,52.7,349,41.41l.23-.15a44.28,44.28,0,0,0,19,4.9c6.54,0,11-2.18,11-5.92,0-2.8-1.94-4.36-5.06-5.44L360,30.9c-7.79-2.64-10.59-8.64-10.59-14.47C349.45,6,358.09,0,370.7,0c6.38,0,13.62,1.56,17,3.58V14.4C383.46,11.52,376.46,10,371.09,10c-7.16,0-9.65,2.65-9.65,6.31,0,1.79.62,4.36,4.82,5.76l13.54,4.05c7,2,11.29,6.92,11.29,13.85,0,10.35-9.34,16.35-22.34,16.35A52.06,52.06,0,0,1,350.93,52.7Z" fill="#231f20"/><path d="M443.59,41.18c0,8.17-6.84,14.24-17,14.24H401V.93h22.41C435.5.93,442,7.47,442,15.8a12.57,12.57,0,0,1-9.65,12.07A13.5,13.5,0,0,1,443.59,41.18ZM421.41,10.67h-8.56V24.52h8c5.92,0,9.42-2.72,9.42-6.85C430.28,13.23,427.17,10.67,421.41,10.67Zm10.27,28.8c0-3.9-3.42-6.93-8.56-6.93H412.85V45.69h10.27C428.26,45.69,431.68,43.36,431.68,39.47Z" fill="#231f20"/><path d="M465.93,11.52v12.3h21.56v9.26l-21.56.08V44.84h22.81V55.42h-34.8V.93h34.8V11.52Z" fill="#231f20"/><path d="M545.65,54.26,545,55.42H532.49l-16-18.21H512.1V55.42H500.65V.93h19.7c13,0,21.64,7.24,21.64,18,0,7.86-4.91,14.32-12.93,17ZM512.1,28.18H519c7.17.08,11.37-3.74,11.37-8.72S526.19,11,519,11H512.1Z" fill="#231f20"/><path d="M606.91,25.45v2.73c0,16.19-12.3,28.18-27.63,28.18-16.27,0-29.43-11.44-29.43-28S563.09,0,579.51,0c7.63,0,16.11,2.65,21.41,7.63l-5.76,8.64-.55.16a22.79,22.79,0,0,0-15.1-5.53c-9.5,0-17.44,7.08-17.44,17.67a17,17,0,0,0,17.29,17.36A15.08,15.08,0,0,0,594.3,34.8H579.2V25.45Z" fill="#231f20"/></svg>